{
	"asset":{
		"generator":"Khronos glTF Blender I/O v4.3.47",
		"version":"2.0"
	},
	"extensionsUsed":[
		"KHR_materials_transmission"
	],
	"scene":0,
	"scenes":[
		{
			"name":"Scene",
			"nodes":[
				0,
				1,
				2,
				3
			]
		}
	],
	"nodes":[
		{
			"name":"Empty",
			"rotation":[
				0.5,
				0.5,
				-0.5,
				0.5
			],
			"translation":[
				0,
				2.192561149597168,
				0.3118729293346405
			]
		},
		{
			"mesh":0,
			"name":"Cylinder",
			"scale":[
				0.6901765465736389,
				0.6901765465736389,
				0.6901765465736389
			],
			"translation":[
				0,
				0.6921668648719788,
				0.010938302613794804
			]
		},
		{
			"mesh":1,
			"name":"Cylinder.001",
			"scale":[
				0.2676931619644165,
				0.19298164546489716,
				0.2676931619644165
			],
			"translation":[
				0,
				4.185741901397705,
				0.011871538124978542
			]
		},
		{
			"mesh":2,
			"name":"Cylinder.002",
			"scale":[
				0.6717920303344727,
				0.6717920303344727,
				0.6717920303344727
			],
			"translation":[
				0,
				0.6921668648719788,
				0.010938302613794804
			]
		}
	],
	"materials":[
		{
			"doubleSided":true,
			"extensions":{
				"KHR_materials_transmission":{
					"transmissionFactor":1
				}
			},
			"name":"Material.001",
			"pbrMetallicRoughness":{
				"baseColorFactor":[
					0.800000011920929,
					0.800000011920929,
					0.800000011920929,
					1
				],
				"metallicFactor":0
			}
		},
		{
			"doubleSided":true,
			"name":"Material.003",
			"pbrMetallicRoughness":{
				"baseColorFactor":[
					0,
					0.019846752285957336,
					1,
					1
				],
				"metallicFactor":0,
				"roughnessFactor":0.5
			}
		},
		{
			"doubleSided":true,
			"extensions":{
				"KHR_materials_transmission":{
					"transmissionFactor":1
				}
			},
			"name":"Material.002",
			"pbrMetallicRoughness":{
				"metallicFactor":0,
				"roughnessFactor":0.1563636213541031
			}
		}
	],
	"meshes":[
		{
			"name":"Cylinder",
			"primitives":[
				{
					"attributes":{
						"POSITION":0,
						"NORMAL":1,
						"TEXCOORD_0":2
					},
					"indices":3,
					"material":0
				}
			]
		},
		{
			"name":"Cylinder.001",
			"primitives":[
				{
					"attributes":{
						"POSITION":4,
						"NORMAL":5,
						"TEXCOORD_0":6
					},
					"indices":7,
					"material":1
				}
			]
		},
		{
			"name":"Cylinder.002",
			"primitives":[
				{
					"attributes":{
						"POSITION":8,
						"NORMAL":9,
						"TEXCOORD_0":10
					},
					"indices":11,
					"material":2
				}
			]
		}
	],
	"accessors":[
		{
			"bufferView":0,
			"componentType":5126,
			"count":10450,
			"max":[
				1.0494656562805176,
				5.206017017364502,
				1.0494656562805176
			],
			"min":[
				-1.0494656562805176,
				-1,
				-1.0494656562805176
			],
			"type":"VEC3"
		},
		{
			"bufferView":1,
			"componentType":5126,
			"count":10450,
			"type":"VEC3"
		},
		{
			"bufferView":2,
			"componentType":5126,
			"count":10450,
			"type":"VEC2"
		},
		{
			"bufferView":3,
			"componentType":5123,
			"count":52980,
			"type":"SCALAR"
		},
		{
			"bufferView":4,
			"componentType":5126,
			"count":1226,
			"max":[
				1.2857600450515747,
				0.9362560510635376,
				1.2857600450515747
			],
			"min":[
				-1.2857600450515747,
				-0.9662023782730103,
				-1.2857600450515747
			],
			"type":"VEC3"
		},
		{
			"bufferView":5,
			"componentType":5126,
			"count":1226,
			"type":"VEC3"
		},
		{
			"bufferView":6,
			"componentType":5126,
			"count":1226,
			"type":"VEC2"
		},
		{
			"bufferView":7,
			"componentType":5123,
			"count":4212,
			"type":"SCALAR"
		},
		{
			"bufferView":8,
			"componentType":5126,
			"count":8777,
			"max":[
				1.0494656562805176,
				4.140157222747803,
				1.0494656562805176
			],
			"min":[
				-1.0494656562805176,
				-1,
				-1.0494656562805176
			],
			"type":"VEC3"
		},
		{
			"bufferView":9,
			"componentType":5126,
			"count":8777,
			"type":"VEC3"
		},
		{
			"bufferView":10,
			"componentType":5126,
			"count":8777,
			"type":"VEC2"
		},
		{
			"bufferView":11,
			"componentType":5123,
			"count":43956,
			"type":"SCALAR"
		}
	],
	"bufferViews":[
		{
			"buffer":0,
			"byteLength":125400,
			"byteOffset":0,
			"target":34962
		},
		{
			"buffer":0,
			"byteLength":125400,
			"byteOffset":125400,
			"target":34962
		},
		{
			"buffer":0,
			"byteLength":83600,
			"byteOffset":250800,
			"target":34962
		},
		{
			"buffer":0,
			"byteLength":105960,
			"byteOffset":334400,
			"target":34963
		},
		{
			"buffer":0,
			"byteLength":14712,
			"byteOffset":440360,
			"target":34962
		},
		{
			"buffer":0,
			"byteLength":14712,
			"byteOffset":455072,
			"target":34962
		},
		{
			"buffer":0,
			"byteLength":9808,
			"byteOffset":469784,
			"target":34962
		},
		{
			"buffer":0,
			"byteLength":8424,
			"byteOffset":479592,
			"target":34963
		},
		{
			"buffer":0,
			"byteLength":105324,
			"byteOffset":488016,
			"target":34962
		},
		{
			"buffer":0,
			"byteLength":105324,
			"byteOffset":593340,
			"target":34962
		},
		{
			"buffer":0,
			"byteLength":70216,
			"byteOffset":698664,
			"target":34962
		},
		{
			"buffer":0,
			"byteLength":87912,
			"byteOffset":768880,
			"target":34963
		}
	],
	"buffers":[
		{
			"byteLength":856792,
			"uri":"untitled.bin"
		}
	]
}
